<svg viewBox="1 1 511.99998 511.99998" xmlns="http://www.w3.org/2000/svg"><path d="m512 256c0 141.386719-114.613281 256-256 256s-256-114.613281-256-256 114.613281-256 256-256 256 114.613281 256 256zm0 0" fill="#ff7591"/><path d="m232.492188 430.605469h47.019531v61.125h-47.019531zm0 0" fill="#3b3b3b"/><path d="m503.832031 86.695312v233.679688c-4.910156 19.015625-11.972656 37.167969-20.898437 54.199219-8.316406 15.902343-18.265625 30.824219-29.613282 44.535156-6.058593 7.324219-12.515624 14.304687-19.339843 20.894531h-355.953125c-6.824219-6.589844-13.28125-13.570312-19.34375-20.894531-11.347656-13.710937-21.292969-28.632813-29.613282-44.535156-8.921874-17.03125-15.984374-35.183594-20.894531-54.199219v-233.679688c0-10.011718 8.117188-18.128906 18.128907-18.128906h459.394531c10.015625 0 18.132812 8.117188 18.132812 18.128906zm0 0" fill="#4a4a4a"/><path d="m482.933594 89.464844v285.109375c-8.316406 15.902343-18.265625 30.824219-29.613282 44.535156h-394.636718c-11.347656-13.710937-21.292969-28.632813-29.613282-44.535156v-285.109375zm0 0" fill="#ffd861"/><path d="m373.886719 483.296875c-35.285157 18.335937-75.367188 28.703125-117.882813 28.703125-42.519531 0-82.601562-10.367188-117.886718-28.703125 28.453124-5.394531 70.71875-8.808594 117.886718-8.808594 47.175782 0 89.433594 3.414063 117.882813 8.808594zm0 0" fill="#4a4a4a"/><path d="m30.796875 165.035156 328.75-165.019531 26.867187 53.527344-328.75 165.019531zm0 0" fill="#3b3b3b"/><path d="m481.199219 339.320312-253.929688 79.789063h-106.589843l-52.402344-166.800781 350.929687-110.265625zm0 0" fill="#3b3b3b"/><g fill="#efefef"><path d="m260.082031 49.9375 53.945313-27.082031 58.90625 37.445312-53.949219 27.082031zm0 0"/><path d="m152.1875 104.097656 53.945312-27.082031 58.90625 37.449219-53.949218 27.082031zm0 0"/><path d="m44.292969 158.261719 53.949219-27.082031 58.902343 37.449218-53.949219 27.082032zm0 0"/><path d="m57.675781 218.558594 350.933594-110.28125 17.957031 57.136718-350.933594 110.285157zm0 0"/></g><path d="m320.378906 198.800781 57.585938-18.097656 16.238281-67.882813-57.585937 18.09375zm0 0" fill="#3b3b3b"/><path d="m205.203125 234.988281 57.585937-18.09375 16.242188-67.886719-57.589844 18.097657zm0 0" fill="#3b3b3b"/><path d="m90.03125 271.175781 57.585938-18.09375 16.238281-67.882812-57.585938 18.09375zm0 0" fill="#3b3b3b"/><path d="m122.449219 311.410156 157.46875-49.488281 5.65625 17.996094-157.46875 49.488281zm0 0" fill="#efefef"/><path d="m136.871094 357.300781 233.054687-73.242187 5.65625 18-233.054687 73.238281zm0 0" fill="#efefef"/></svg>